<svg id="Layer_1" data-name="Layer 1" xmlns="http://www.w3.org/2000/svg" viewBox="0 0 1570.37 978.58">
  <defs>
    <style>
      .cls-1 {
        fill: #fff;
      }
    </style>
  </defs>
  <path class="cls-1" d="m1570.29,416.41c-1.7-19.5-25.28-42.43-58.98-64.67-76.35-50.39-204.58-97.41-248.26-93.54l-407.03,71.7C641.58,227.42,194.59,16.82,109.55.84,10.43-17.79,447.85,278.02,594.56,375.92l-473.37,83.33c-23.2-49.62-92.48-121.08-114.71-145.28-22.67-24.69,20.78,101.24,28.95,174.69-12.66,11.08-21.14,25.62-23.55,44.48-.46,3.61-.68,7.43-.68,11.39l8.42,12.56c34.5,15.87,35.73,64.59,94.46,59.38l661.46-72.43c-11.5,166.92-32.79,527.64,6.91,412.14,26.47-77.02,123.55-332.71,160.79-430.51l339.77-37.2c61.19-5.39,279.69-8.31,287.17-66.76.22-1.7.23-3.49.11-5.31Z"/>
</svg>